<svg xmlns="http://www.w3.org/2000/svg" viewBox="0 0 500 500">
  <path d="M144.2 217.7c0-58.3 47.5-105.8 105.8-105.8s105.8 47.5 105.8 105.8v150.9l25.9 25.9V217.7C381.7 145.1 322.6 86 250 86s-131.7 59.1-131.7 131.7v176.8l25.9-25.9z"/>
  <path d="M250.1 125.1c-51.3 0-93 41.7-93 93v137.6l20.7-20.7V218.1c0-39.9 32.5-72.3 72.3-72.3s72.3 32.5 72.3 72.3V335l20.7 20.7V218.1c0-51.3-41.7-93-93-93"/>
  <path d="M250.1 160.2c-32.7 0-59.3 26.6-59.3 59.3V322l14.4-14.4v-88.1c0-24.7 20.1-44.9 44.9-44.9s44.9 20.1 44.9 44.9v88.1l14.4 14.4V219.5c0-32.7-26.6-59.3-59.3-59.3"/>
  <path d="M213.2 263.1H287v7.6h-73.8z"/>
</svg>
