<svg xmlns="http://www.w3.org/2000/svg" viewBox="0 0 500 500">
  <path d="M178.5 332.3h-2.4v.8c-1.9 11.7-4 19.4-15.9 19.4H138v-79.2c0-5.1 1.8-8.7 4.5-9.3l.7-.2v-2.4h-21.9v2.4l.7.2c2.8.6 4.7 4.3 4.7 9.3v72c0 4.9-1.9 8.6-4.7 9.2l-.7.2v2.4h57.1v-24.6Zm19.5 22.2-.7.2v2.4h21.9v-2.4l-.7-.2c-2.7-.6-4.5-4.2-4.5-9.2v-34.2l21.4-37.4c3-5.2 7.4-9.1 10.8-9.8h.7v-2.5h-15.8v2.3l.7.2c.5.1.9.4 1.1.9.6 1.5-.2 4.5-2.2 8l-19.5 33.9-19.5-33.8c-2-3.6-2.8-6.6-2.2-8 .2-.5.5-.7 1.1-.9l.7-.2v-2.3h-23.4v2.4h.7c3.4.8 7.7 4.7 10.6 9.9l23.5 40.6v31c0 4.9-1.9 8.6-4.7 9.2m229.2-75.9 15.3 41.4c-15.5 0-26 3.2-34.1 10.5zm-38 78.3h15.4v-2.3l-.7-.2c-.7-.2-1.2-.5-1.5-1.2-.8-1.5-.7-4.4.5-7.6l.7-1.6c6.8-15.8 27.7-20.8 40.7-19.3l7.2 20.9c1.2 3.3 1.5 6.1.7 7.7q-.45.9-1.5 1.2l-.7.2v2.3h22.4v-2.4h-.7c-3.2-.8-6.5-4.5-8.4-9.6l-30.1-82.9-.2-.6h-4.1l-30.3 83.5c-1.9 5.1-5.2 8.9-8.4 9.5h-.7v2.5Zm.5-24.9c0-16.8-15-23.7-28.2-29.9-11.8-5.5-22.9-10.6-22.9-21.7s7.7-15.9 19.3-15.9 21.1 4.3 24.5 24.7v.8h2.5v-29.6h-2.4l-.2.7c-.6 2.7-1.1 4.8-2.5 5.4s-3.8-.1-7.3-2.2c-5.3-3-10.3-4.4-16.2-4.4-16.6 0-28.1 10.2-28.1 24.7s13.7 21.9 27 27.8c12.3 5.5 23.8 10.6 23.8 22.9s-8.8 18.3-21.5 18.3-22.1-8.3-24.9-24.7v-.8h-2.4v29.6h2.2l.2-.7c.5-2.6 1.1-4.8 2.6-5.4 1.4-.6 3.9.1 7.4 2.2 5.5 3.1 10.3 4.4 16.8 4.4 17.9 0 30.4-10.8 30.4-26.2m-135.9-1.5 18.8-51.9 15.3 41.4c-15.5 0-26 3.2-34.1 10.5m42.2 23.9-.7.2v2.3h22.4v-2.4h-.7c-3.2-.8-6.5-4.5-8.4-9.6l-30.1-82.9-.2-.6h-4.1L244 345c-1.9 5.1-5.2 8.9-8.4 9.5h-.7v2.5h15.4v-2.3l-.7-.2c-.7-.2-1.2-.5-1.5-1.2-.8-1.5-.7-4.4.5-7.6l.7-1.6c6.8-15.8 27.7-20.8 40.7-19.3l7.2 20.9c1.2 3.3 1.5 6.1.7 7.7q-.45.9-1.5 1.2M65.7 278.7 81 320.1c-15.5 0-26 3.2-34.1 10.5zm-22.5 75.9-.7-.2c-.7-.2-1.2-.5-1.5-1.2-.8-1.5-.7-4.4.5-7.6l.7-1.6c6.8-15.8 27.7-20.8 40.7-19.3l7.2 20.9c1.2 3.3 1.5 6.1.7 7.7q-.45.9-1.5 1.2l-.7.2v2.3H111v-2.4h-.7c-3.2-.8-6.5-4.5-8.4-9.6l-30.1-82.9-.2-.6h-4.1L37.2 345c-1.9 5.1-5.2 8.9-8.4 9.5h-.7v2.5h15.4v-2.3Zm157.5-207.2c0-27.2 22.2-49.4 49.4-49.4s49.4 22.2 49.4 49.4v70.4l12.1 12.1v-82.5c0-33.9-27.6-61.5-61.5-61.5s-61.5 27.6-61.5 61.5v82.5l12.1-12.1z"/>
  <path d="M250.1 104.3c-23.9 0-43.4 19.5-43.4 43.4v64.2l9.6-9.6v-54.6c0-18.6 15.1-33.8 33.8-33.8s33.8 15.1 33.8 33.8v54.6l9.6 9.6v-64.2c0-23.9-19.5-43.4-43.4-43.4"/>
  <path d="M250.1 120.6c-15.3 0-27.7 12.4-27.7 27.7v47.8l6.7-6.7v-41.1c0-11.5 9.4-20.9 20.9-20.9s20.9 9.4 20.9 20.9v41.1l6.7 6.7v-47.8c0-15.3-12.4-27.7-27.7-27.7"/>
  <path d="M232.9 168.6h34.4v3.6h-34.4zM27.8 399l106.7.1v-1.9l-106.7-.1zm339.2 0 105.3.1v-1.9l-105.3-.1zm-202.6-15.7h.4c.2.1.3.2.3.4.2.4.2 1.3-.2 2.4l-7.7 21.2-7.7-21.2c-.4-1-.5-1.9-.2-2.4 0-.1.2-.2.3-.3h.4v-1.3h-7.9v1.2h.4c1 .3 2 1.5 2.6 3.1l9.9 27.1v.4h1.8l10-27.5c.6-1.6 1.6-2.8 2.6-3h.4v-1.3h-5.6v1.2Zm14.1 0h.4c.8.3 1.3 1.4 1.3 2.9v23.6c0 1.5-.5 2.6-1.3 2.8h-.4v1.3h7.7v-1.2h-.4c-.8-.3-1.3-1.4-1.3-2.9v-23.6c0-1.5.5-2.6 1.3-2.8h.4v-1.3h-7.7zm41.9 22.5c-.6 3.8-1.2 6.1-4.9 6.1h-9.2v-25.7c0-1.5.5-2.6 1.3-2.8h.4v-1.3h-7.7v1.2h.4c.8.3 1.3 1.4 1.3 2.9v23.6c0 1.5-.5 2.6-1.3 2.8h-.4v1.3h21.5v-8.6h-1.3v.5Zm31.7 0c-.6 3.8-1.2 6.1-4.9 6.1H238v-25.7c0-1.5.5-2.6 1.3-2.8h.4v-1.3H232v1.2h.4c.8.3 1.3 1.4 1.3 2.9v23.6c0 1.5-.5 2.6-1.3 2.8h-.4v1.3h21.5v-8.6h-1.3v.5Zm17.1-1.3 5.7-15.8 5.3 14.4c-3.3-.5-7.5-.3-11 1.4m17.8 5.1-9.9-27.2v-.4h-1.8l-10 27.5c-.6 1.6-1.6 2.8-2.6 3h-.4v1.3h5.6v-1.2h-.4c-.2-.1-.3-.2-.3-.4-.2-.4-.2-1.3.2-2.3l.9-2.5c3.2-2.6 8.8-3.1 12.8-2.3l1.7 4.7c.4 1 .5 1.9.2 2.3 0 .1-.2.2-.3.3h-.4v1.3h7.9v-1.2h-.4c-.9-.3-2-1.5-2.6-3m28.4-10.7h.5c2.2.1 3.2 1 3.2 2.8v3.3c0 4.3-3.9 7-7.6 7-5.3 0-8.8-5.8-8.8-14.3s3.7-13.9 9.6-13.9 7.2 1 8.3 7.9v.5h1.3v-10.2h-1.2v.4c-.3.8-.5 1.6-.8 1.8-.3.1-.8 0-1.4-.4-1.7-.9-4.3-2-7.1-2-7.6 0-13.2 7.1-13.2 16.9s5 15.9 12.2 15.9 7.6-1.7 9.5-5.3l2.1 4.9h1.2v-12.3c0-1.5.5-2.6 1.3-2.8h.4v-1.3h-9.7v1.3Zm21.2-15.5h.4c.8.3 1.3 1.4 1.3 2.9v23.6c0 1.5-.5 2.6-1.3 2.8h-.4v1.3H356v-8.6h-1.3v.5c-.7 3.8-1.3 6.1-5 6.1h-7V399h4.6c1.2 0 2 .9 2.5 2.9v.4h1.6v-8.9h-1.5v.4c-.6 2.1-1.4 3.1-2.6 3.1h-4.6V384h7c3.7 0 4.4 2.3 4.9 6.1v.5h1.3V382h-19.2v1.2Z"/>
</svg>
